<?xml version="1.0" encoding="UTF-8"?>
<svg version="1.1" xmlns="http://www.w3.org/2000/svg" width="200" height="185">
<path d="M0 0 C66 0 132 0 200 0 C200 61.05 200 122.1 200 185 C134 185 68 185 0 185 C0 123.95 0 62.9 0 0 Z " fill="#FCFDFD" transform="translate(0,0)"/>
<path d="M0 0 C-0.53428648 3.84686264 -1.27480249 6.19597446 -4 9 C-7.15234375 10.0546875 -7.15234375 10.0546875 -10.9375 10.875 C-29.81287152 15.41591277 -45.4496178 27.23223525 -55.79003906 43.52294922 C-66.12907069 60.4279373 -69.31292288 80.58842473 -65.0546875 100.05859375 C-63.97638129 104.16024657 -62.573175 108.06269258 -61 112 C-60.45859375 113.38638672 -60.45859375 113.38638672 -59.90625 114.80078125 C-52.09574766 132.29072756 -37.22996521 144.79389905 -19.97265625 152.3203125 C-5.7333926 157.71246002 5.99951931 157 22 157 C22 131.26 22 105.52 22 79 C29.92 78.67 37.84 78.34 46 78 C49.88736036 76.44622625 49.88736036 76.44622625 51.25 74.25 C52.25828913 71.2251326 52.45341075 69.17387527 52 66 C50.34095786 63.46264144 49.57786761 62.43575341 47 61 C42.73509835 60.23456298 38.51248347 60.20930664 34.1875 60.1875 C33.01767578 60.16236328 31.84785156 60.13722656 30.64257812 60.11132812 C27.7613807 60.05252818 24.88170017 60.01619468 22 60 C22 57.36 22 54.72 22 52 C25.99974981 51.88289021 29.99905281 51.81244511 34 51.75 C35.12535156 51.71648438 36.25070313 51.68296875 37.41015625 51.6484375 C44.46473924 51.56592776 49.02638112 52.15732119 55 56 C59.88156086 61.25706554 60.40676061 64.84548789 60.34765625 71.87890625 C59.83144293 76.51322584 58.1308923 79.59536849 55 83 C47.29429687 88.82626335 40.02668358 87 30 87 C30 112.08 30 137.16 30 163 C9.04137955 169.98620682 -12.79164894 165.91616657 -32.19921875 156.4375 C-53.46249084 144.8747272 -66.38613231 125.78115373 -73.44677734 103.14306641 C-78.82626667 82.30407378 -75.43869715 60.36606541 -65.10693359 41.86865234 C-62.41564396 37.32539455 -59.24166961 33.16242554 -56 29 C-55.34 28.01 -54.68 27.02 -54 26 C-53.34 26 -52.68 26 -52 26 C-51.78859375 25.43925781 -51.5771875 24.87851562 -51.359375 24.30078125 C-49.53919931 21.22008158 -47.05918764 19.31552252 -44.25 17.1875 C-43.67725342 16.75171631 -43.10450684 16.31593262 -42.5144043 15.86694336 C-33.60094857 9.28977802 -23.76804803 4.65923969 -13 2 C-12.26910156 1.79632813 -11.53820312 1.59265625 -10.78515625 1.3828125 C-7.11760965 0.38567693 -3.80357456 -0.23772341 0 0 Z " fill="#126C9C" transform="translate(102,3)"/>
<path d="M0 0 C20.18532785 -0.40839554 38.9187242 6.41576261 54 20 C54.680625 20.52851563 55.36125 21.05703125 56.0625 21.6015625 C69.50582194 32.26169669 79.96214117 52.16049319 82 69 C83.57434694 91.74634276 80.62077185 110.66670978 68 130 C67.4534375 130.85722656 66.906875 131.71445313 66.34375 132.59765625 C58.3079067 144.70621104 45.35675116 154.31101339 32 160 C31.01 160 30.02 160 29 160 C27.86933223 155.12943116 27.86933223 155.12943116 29 152 C32.50284369 149.20202961 36.37872996 147.14677736 40.29003906 144.98681641 C55.77528972 136.05029682 65.05131823 120.39314146 71 104 C76.30935799 84.07352064 73.53546261 63.33964792 63.98046875 45.2890625 C53.58801713 28.02980359 36.94877017 15.79526181 17.59765625 10.3203125 C13.28903492 9.27362579 9.4456664 8.97118128 5 9 C4.64921387 9.72662842 4.29842773 10.45325684 3.93701172 11.2019043 C2.8693398 13.41351042 1.80162742 15.62509701 0.73388672 17.83666992 C-0.52268114 20.43951264 -1.77881448 23.04256449 -3.03466797 25.64575195 C-6.22448282 32.25681602 -9.41840813 38.86580551 -12.625 45.46875 C-20.27303862 61.22924985 -27.72568413 77.0639571 -35 93 C-34.09636719 93.01417969 -33.19273438 93.02835937 -32.26171875 93.04296875 C-31.08222656 93.09066406 -29.90273437 93.13835937 -28.6875 93.1875 C-27.51574219 93.22230469 -26.34398437 93.25710937 -25.13671875 93.29296875 C-22 94 -22 94 -20.08203125 96.36328125 C-19 99 -19 99 -19 102 C-25.93 102 -32.86 102 -40 102 C-40.66 103.98 -41.32 105.96 -42 108 C-42.97004121 110.01470098 -43.96244882 112.01922047 -45 114 C-47.64 114 -50.28 114 -53 114 C-52.35763342 109.43480502 -50.55829989 105.58777723 -48.5703125 101.48046875 C-48.22406326 100.75320084 -47.87781403 100.02593292 -47.52107239 99.27662659 C-46.3939342 96.91121727 -45.25941086 94.54942877 -44.125 92.1875 C-42.56383756 88.91658634 -41.00653285 85.64384103 -39.44921875 82.37109375 C-39.06377396 81.56237823 -38.67832916 80.75366272 -38.28120422 79.92044067 C-34.68194156 72.35866892 -31.18642302 64.75239428 -27.75244141 57.11401367 C-25.0405852 51.12594816 -22.14608664 45.244867 -19.19224548 39.37384033 C-15.21216872 31.45593262 -11.35691676 23.47841944 -7.5 15.5 C-6.76571899 13.98302742 -6.03134435 12.46610016 -5.296875 10.94921875 C-3.53017713 7.29999733 -1.76472306 3.6501768 0 0 Z " fill="#49494A" transform="translate(111,3)"/>
<path d="M0 0 C-0.53428648 3.84686264 -1.27480249 6.19597446 -4 9 C-7.15234375 10.0546875 -7.15234375 10.0546875 -10.9375 10.875 C-29.81287152 15.41591277 -45.4496178 27.23223525 -55.79003906 43.52294922 C-66.12907069 60.4279373 -69.31292288 80.58842473 -65.0546875 100.05859375 C-63.97638129 104.16024657 -62.573175 108.06269258 -61 112 C-60.45859375 113.38638672 -60.45859375 113.38638672 -59.90625 114.80078125 C-56.15969238 123.19039422 -49.86533398 131.37624939 -43.1875 137.63671875 C-41 140 -41 140 -41 144 C-40.34 144.061875 -39.68 144.12375 -39 144.1875 C-35.48090662 145.14058779 -32.98199287 146.74461859 -29.96484375 148.74609375 C-28.03023097 149.98070748 -26.06845214 151.00953851 -24 152 C-24.66 153.65 -25.32 155.3 -26 157 C-27.32 156.67 -28.64 156.34 -30 156 C-30 155.34 -30 154.68 -30 154 C-30.7115625 153.91105469 -31.423125 153.82210937 -32.15625 153.73046875 C-39.79482349 151.76836265 -46.4352884 145.23843918 -51 139 C-51.98342866 137.81681173 -51.98342866 137.81681173 -53.8203125 137.73828125 C-60.15070015 135.59411769 -64.30530156 125.73786428 -67.25 120.125 C-75.84917506 102.12999605 -78.78239107 78.40006962 -73.16796875 59 C-68.87056401 47.96185004 -63.27300943 38.33881728 -56 29 C-55.34 28.01 -54.68 27.02 -54 26 C-53.34 26 -52.68 26 -52 26 C-51.78859375 25.43925781 -51.5771875 24.87851562 -51.359375 24.30078125 C-49.53919931 21.22008158 -47.05918764 19.31552252 -44.25 17.1875 C-43.67725342 16.75171631 -43.10450684 16.31593262 -42.5144043 15.86694336 C-33.60094857 9.28977802 -23.76804803 4.65923969 -13 2 C-12.26910156 1.79632813 -11.53820312 1.59265625 -10.78515625 1.3828125 C-7.11760965 0.38567693 -3.80357456 -0.23772341 0 0 Z " fill="#1E97C2" transform="translate(102,3)"/>
<path d="M0 0 C7.19837045 -0.1842237 13.72683404 -0.29752583 20.625 1.875 C21.77226562 2.22304687 22.91953125 2.57109375 24.1015625 2.9296875 C27 4 27 4 30 6 C29.34 6 28.68 6 28 6 C27.67 7.65 27.34 9.3 27 11 C27.99 11.495 27.99 11.495 29 12 C24.76437142 13.45055773 22.10177358 12.23883646 18.0234375 10.7890625 C13.73188949 9.66904609 9.41222871 9.35681595 5 9 C4.64921387 9.72662842 4.29842773 10.45325684 3.93701172 11.2019043 C2.8693398 13.41351042 1.80162742 15.62509701 0.73388672 17.83666992 C-0.52268114 20.43951264 -1.77881448 23.04256449 -3.03466797 25.64575195 C-6.22448282 32.25681602 -9.41840813 38.86580551 -12.625 45.46875 C-20.27303862 61.22924985 -27.72568413 77.0639571 -35 93 C-34.09636719 93.01417969 -33.19273438 93.02835937 -32.26171875 93.04296875 C-31.08222656 93.09066406 -29.90273437 93.13835937 -28.6875 93.1875 C-27.51574219 93.22230469 -26.34398437 93.25710937 -25.13671875 93.29296875 C-22 94 -22 94 -20.08203125 96.36328125 C-19 99 -19 99 -19 102 C-25.93 102 -32.86 102 -40 102 C-40.66 103.98 -41.32 105.96 -42 108 C-42.97004121 110.01470098 -43.96244882 112.01922047 -45 114 C-47.64 114 -50.28 114 -53 114 C-52.35763342 109.43480502 -50.55829989 105.58777723 -48.5703125 101.48046875 C-48.22406326 100.75320084 -47.87781403 100.02593292 -47.52107239 99.27662659 C-46.3939342 96.91121727 -45.25941086 94.54942877 -44.125 92.1875 C-42.56383756 88.91658634 -41.00653285 85.64384103 -39.44921875 82.37109375 C-39.06377396 81.56237823 -38.67832916 80.75366272 -38.28120422 79.92044067 C-34.68194156 72.35866892 -31.18642302 64.75239428 -27.75244141 57.11401367 C-25.0405852 51.12594816 -22.14608664 45.244867 -19.19224548 39.37384033 C-15.21216872 31.45593262 -11.35691676 23.47841944 -7.5 15.5 C-6.76571899 13.98302742 -6.03134435 12.46610016 -5.296875 10.94921875 C-3.53017713 7.29999733 -1.76472306 3.6501768 0 0 Z " fill="#7E7F80" transform="translate(111,3)"/>
<path d="M0 0 C7.59 0 15.18 0 23 0 C23 0.33 23 0.66 23 1 C15.74 1 8.48 1 1 1 C1 26.74 1 52.48 1 79 C1.66 79.33 2.32 79.66 3 80 C3 80.99 3 81.98 3 83 C4.98 83.99 4.98 83.99 7 85 C-15.1190737 90.68196389 -37.42678231 86.55819746 -57.1875 75.8125 C-63.54774978 71.9583269 -72.58485349 65.83029303 -76 59 C-75.34 59 -74.68 59 -74 59 C-74 58.34 -74 57.68 -74 57 C-73.34 57.33 -72.68 57.66 -72 58 C-71.690625 59.051875 -71.690625 59.051875 -71.375 60.125 C-68.4332189 66.27599684 -61.77631019 70.5867258 -56 74 C-53.77397385 74.76939681 -53.77397385 74.76939681 -52 75 C-52 75.66 -52 76.32 -52 77 C-50.68 77 -49.36 77 -48 77 C-47.34 75.68 -46.68 74.36 -46 73 C-46.886875 72.71125 -47.77375 72.4225 -48.6875 72.125 C-56.7654921 69.38153098 -56.7654921 69.38153098 -60 66 C-60.99 65.67 -61.98 65.34 -63 65 C-63 64.01 -63 63.02 -63 62 C-59.97347546 63.44261858 -57.10991939 65.10539637 -54.22924805 66.81787109 C-36.19489139 77.45811695 -22.16579965 78 0 78 C0 52.26 0 26.52 0 0 Z " fill="#2075A0" transform="translate(124,82)"/>
<path d="M0 0 C3.99974981 -0.11710979 7.99905281 -0.18755489 12 -0.25 C13.12535156 -0.28351562 14.25070313 -0.31703125 15.41015625 -0.3515625 C22.46473924 -0.43407224 27.02638112 0.15732119 33 4 C37.88156086 9.25706554 38.40676061 12.84548789 38.34765625 19.87890625 C37.72187185 25.49690331 35.23068444 29.12965689 30.96875 32.703125 C26.56198318 34.6281863 22.43646927 34.31839032 17.6875 34.1875 C16.29047852 34.16719727 16.29047852 34.16719727 14.86523438 34.14648438 C12.57622354 34.11126882 10.28841542 34.06202099 8 34 C8 32.35 8 30.7 8 29 C5.69 29 3.38 29 1 29 C1 28.67 1 28.34 1 28 C1.96039185 27.97812622 1.96039185 27.97812622 2.94018555 27.95581055 C5.85654831 27.88108618 8.77179687 27.78450707 11.6875 27.6875 C13.19860352 27.65366211 13.19860352 27.65366211 14.74023438 27.61914062 C21.88094351 27.43662585 21.88094351 27.43662585 28 24 C30.32106991 20.79471299 30.55405751 17.87840257 30 14 C28.34095786 11.46264144 27.57786761 10.43575341 25 9 C20.73509835 8.23456298 16.51248347 8.20930664 12.1875 8.1875 C11.01767578 8.16236328 9.84785156 8.13722656 8.64257812 8.11132812 C5.7613807 8.05252818 2.88170017 8.01619468 0 8 C0 5.36 0 2.72 0 0 Z " fill="#135E8E" transform="translate(124,55)"/>
<path d="M0 0 C0.66 0.33 1.32 0.66 2 1 C1.67 2.32 1.34 3.64 1 5 C0.34 5 -0.32 5 -1 5 C-1 6.32 -1 7.64 -1 9 C-1.66 9 -2.32 9 -3 9 C-3 10.98 -3 12.96 -3 15 C-3.66 15 -4.32 15 -5 15 C-4.979375 16.299375 -4.95875 17.59875 -4.9375 18.9375 C-4.91600546 20.29165633 -4.92851801 21.64756083 -5 23 C-5.33 23.33 -5.66 23.66 -6 24 C-6.25678625 27.59630227 -6.19001194 31.20813889 -6.1875 34.8125 C-6.18741943 35.85809082 -6.18733887 36.90368164 -6.18725586 37.98095703 C-6.74696321 49.66412615 -6.74696321 49.66412615 -3 60 C-2.95919217 61.99958364 -2.95745644 64.00045254 -3 66 C-2.34 66 -1.68 66 -1 66 C-0.62875 66.94875 -0.2575 67.8975 0.125 68.875 C1.90318789 73.1133022 4.36072231 76.84299682 6.890625 80.66796875 C8 83 8 83 7.671875 85.30078125 C7.33929688 86.14189453 7.33929688 86.14189453 7 87 C6.01 87 5.02 87 4 87 C4 86.34 4 85.68 4 85 C3.34 85 2.68 85 2 85 C1.74605469 84.43410156 1.49210937 83.86820312 1.23046875 83.28515625 C0.88628906 82.55167969 0.54210938 81.81820312 0.1875 81.0625 C-0.31716797 79.96615234 -0.31716797 79.96615234 -0.83203125 78.84765625 C-1.93600134 76.66970511 -1.93600134 76.66970511 -5 76 C-6.17484206 73.51579197 -7.1468832 71.14074576 -8.0625 68.5625 C-8.31837891 67.88767578 -8.57425781 67.21285156 -8.83789062 66.51757812 C-12.39463391 56.79825137 -13.36291595 47.50320493 -13.3125 37.1875 C-13.30903564 36.03983154 -13.30557129 34.89216309 -13.30200195 33.7097168 C-13.19951617 25.74017314 -12.62723097 18.57761524 -10 11 C-9.7834375 10.26910156 -9.566875 9.53820312 -9.34375 8.78515625 C-8.13315721 5.26146653 -7.106266 4.0637596 -3.875 2.125 C-2.92625 1.75375 -1.9775 1.3825 -1 1 C-0.67 0.67 -0.34 0.34 0 0 Z " fill="#139DCF" transform="translate(40,48)"/>
<path d="M0 0 C10.31699764 -0.61696331 21.16488 0.10992 30 6 C29.34 6 28.68 6 28 6 C27.67 7.65 27.34 9.3 27 11 C27.66 11.33 28.32 11.66 29 12 C24.76437142 13.45055773 22.10177358 12.23883646 18.0234375 10.7890625 C13.73188949 9.66904609 9.41222871 9.35681595 5 9 C4.59160889 9.86278564 4.18321777 10.72557129 3.76245117 11.61450195 C2.24252054 14.82120178 0.71420406 18.02384441 -0.81665039 21.2253418 C-1.47746753 22.61031991 -2.13601944 23.99638124 -2.79223633 25.38354492 C-3.73703014 27.37969899 -4.68995896 29.37178837 -5.64453125 31.36328125 C-5.9352803 31.98213699 -6.22602936 32.60099274 -6.52558899 33.23860168 C-8.00313249 36.30050834 -9.37844901 38.79511936 -12 41 C-12.103125 40.360625 -12.20625 39.72125 -12.3125 39.0625 C-12.539375 38.381875 -12.76625 37.70125 -13 37 C-13.99 36.67 -14.98 36.34 -16 36 C-15.36180191 31.64869587 -13.80088198 28.17775705 -11.875 24.23828125 C-11.56804199 23.60641403 -11.26108398 22.97454681 -10.94482422 22.3235321 C-9.96859523 20.31717867 -8.98443303 18.31483871 -8 16.3125 C-7.33801551 14.95533464 -6.67655168 13.59791519 -6.015625 12.24023438 C-2.00149241 4.00298482 -2.00149241 4.00298482 0 0 Z " fill="#69696A" transform="translate(111,3)"/>
<path d="M0 0 C1.18335938 0.08701172 1.18335938 0.08701172 2.390625 0.17578125 C3.18984375 0.22089844 3.9890625 0.26601562 4.8125 0.3125 C5.41578125 0.37050781 6.0190625 0.42851562 6.640625 0.48828125 C7.135625 1.47828125 7.135625 1.47828125 7.640625 2.48828125 C-0.16515448 14.44088108 -13.27133719 23.91374663 -26.359375 29.48828125 C-27.349375 29.48828125 -28.339375 29.48828125 -29.359375 29.48828125 C-30.49004277 24.61771241 -30.49004277 24.61771241 -29.359375 21.48828125 C-25.86212829 18.69478157 -21.99668411 16.65473875 -18.09130859 14.50146484 C-12.92189104 11.47734829 -7.90993998 7.61686749 -4.37890625 2.76953125 C-2.359375 0.48828125 -2.359375 0.48828125 0 0 Z " fill="#555555" transform="translate(169.359375,133.51171875)"/>
<path d="M0 0 C2.93301786 2.53548667 4.30697731 5.33409038 5.9609375 8.8125 C6.51523438 9.97136719 7.06953125 11.13023438 7.640625 12.32421875 C8.2188158 13.54944812 8.79694049 14.77470869 9.375 16 C9.93960938 17.18207031 10.50421875 18.36414063 11.0859375 19.58203125 C12.73708769 23.04868222 14.37253064 26.52217529 16 30 C16.5043457 31.07507813 17.00869141 32.15015625 17.52832031 33.2578125 C17.98561523 34.24523437 18.44291016 35.23265625 18.9140625 36.25 C19.31834473 37.12140625 19.72262695 37.9928125 20.13916016 38.890625 C21 41 21 41 21 43 C18.36 43 15.72 43 13 43 C10.70173805 38.4584877 8.42628185 33.90647385 6.16845703 29.34472656 C5.01082638 27.02172514 3.83197056 24.71032844 2.65234375 22.3984375 C1.91303919 20.91196684 1.17472753 19.42500187 0.4375 17.9375 C0.07914062 17.24857666 -0.27921875 16.55965332 -0.6484375 15.84985352 C-2.91692999 11.19933095 -3.36294258 8.17918181 -2 3 C-1.34 2.01 -0.68 1.02 0 0 Z " fill="#1C79A5" transform="translate(94,74)"/>
<path d="M0 0 C-0.53428648 3.84686264 -1.27480249 6.19597446 -4 9 C-7.15234375 10.0546875 -7.15234375 10.0546875 -10.9375 10.875 C-21.80693446 13.46296059 -30.92824367 18.53980989 -40 25 C-40 23.02 -40 21.04 -40 19 C-37.69 19 -35.38 19 -33 19 C-33 18.01 -33 17.02 -33 16 C-32.34 15.67 -31.68 15.34 -31 15 C-31 14.34 -31 13.68 -31 13 C-34.41766643 13.62916132 -36.6673465 14.95367246 -39.5 16.9375 C-42.2627187 18.86288786 -44.95053593 20.56536576 -48 22 C-45.04147517 17.88126935 -41.75745205 15.16243951 -37.5 12.5 C-36.8819751 12.11054199 -36.2639502 11.72108398 -35.62719727 11.31982422 C-25.09930951 4.84465367 -12.57208268 -0.43990713 0 0 Z " fill="#1B7EAC" transform="translate(102,3)"/>
<path d="M0 0 C12.88440792 1.57689769 22.19310702 10.22106541 31 19 C31.61230469 19.55816406 32.22460938 20.11632812 32.85546875 20.69140625 C33.23316406 21.12324219 33.61085937 21.55507813 34 22 C33.6875 24.1875 33.6875 24.1875 33 26 C32.01 26 31.02 26 30 26 C29.34 25.34 28.68 24.68 28 24 C27.01 24.33 26.02 24.66 25 25 C24.26910156 24.27296875 24.26910156 24.27296875 23.5234375 23.53125 C16.49201443 16.8833591 8.61217664 12.30608832 0 8 C-0.95067299 4.71585695 -1.10102197 3.30306592 0 0 Z " fill="#585859" transform="translate(139,9)"/>
<path d="M0 0 C1.98 0.66 3.96 1.32 6 2 C5.61620119 9.3445135 3.05084368 14.86811495 -0.25 21.375 C-0.72824219 22.37144531 -1.20648438 23.36789063 -1.69921875 24.39453125 C-2.17488281 25.34457031 -2.65054688 26.29460937 -3.140625 27.2734375 C-3.56891602 28.13372559 -3.99720703 28.99401367 -4.43847656 29.88037109 C-6.34180267 32.46396667 -7.97246853 33.08104167 -11 34 C-13.08438787 25.18574996 -10.12925247 19.75956662 -6.0625 11.9375 C-5.48564453 10.78572266 -4.90878906 9.63394531 -4.31445312 8.44726562 C-2.89548844 5.62106323 -1.45726273 2.80659187 0 0 Z " fill="#727276" transform="translate(94,38)"/>
<path d="M0 0 C4.08327357 -0.0580772 8.16644083 -0.09362249 12.25 -0.125 C13.98830078 -0.15013672 13.98830078 -0.15013672 15.76171875 -0.17578125 C16.87675781 -0.18222656 17.99179688 -0.18867187 19.140625 -0.1953125 C20.68024902 -0.21102295 20.68024902 -0.21102295 22.25097656 -0.22705078 C25.04875018 0.00402644 26.65668642 0.48896676 29 2 C30.36258026 4.24724057 31.08046065 6.51724376 32 9 C31.34 9.66 30.68 10.32 30 11 C29.29786377 10.67854004 28.59572754 10.35708008 27.87231445 10.02587891 C24.77631271 8.92010761 22.3211005 8.68680309 19.04296875 8.5859375 C17.93115234 8.54726563 16.81933594 8.50859375 15.67382812 8.46875 C14.52333984 8.4378125 13.37285156 8.406875 12.1875 8.375 C11.01767578 8.33632813 9.84785156 8.29765625 8.64257812 8.2578125 C5.76187436 8.1637487 2.88117346 8.07810123 0 8 C0 5.36 0 2.72 0 0 Z " fill="#125F8E" transform="translate(124,55)"/>
<path d="M0 0 C0.66 0.33 1.32 0.66 2 1 C2.309375 2.051875 2.309375 2.051875 2.625 3.125 C5.5667811 9.27599684 12.22368981 13.5867258 18 17 C20.22602615 17.76939681 20.22602615 17.76939681 22 18 C22 18.66 22 19.32 22 20 C23.32 20 24.64 20 26 20 C26.66 18.68 27.32 17.36 28 16 C27.113125 15.71125 26.22625 15.4225 25.3125 15.125 C17.2345079 12.38153098 17.2345079 12.38153098 14 9 C13.01 8.67 12.02 8.34 11 8 C11 7.01 11 6.02 11 5 C14.02652454 6.44261858 16.89008061 8.10539637 19.77075195 9.81787109 C29.12848549 15.33892113 38.31000977 18.8970511 49 21 C49 21.33 49 21.66 49 22 C46.69 22.33 44.38 22.66 42 23 C42 23.99 42 24.98 42 26 C42.99 26 43.98 26 45 26 C45 26.66 45 27.32 45 28 C45.66 28.33 46.32 28.66 47 29 C28.48558409 28.35037137 11.54322507 16.84136624 -1 4 C-1.33 3.34 -1.66 2.68 -2 2 C-1.34 2 -0.68 2 0 2 C0 1.34 0 0.68 0 0 Z " fill="#2385AE" transform="translate(50,139)"/>
<path d="M0 0 C1.12588014 0.95729916 2.2506715 1.91587895 3.375 2.875 C4.00148438 3.40867188 4.62796875 3.94234375 5.2734375 4.4921875 C6.55836651 5.61432007 7.79371975 6.79371975 9 8 C9 9.32 9 10.64 9 12 C9.66 12.061875 10.32 12.12375 11 12.1875 C14.51909338 13.14058779 17.01800713 14.74461859 20.03515625 16.74609375 C21.96976903 17.98070748 23.93154786 19.00953851 26 20 C25.01 22.475 25.01 22.475 24 25 C22.68 24.67 21.36 24.34 20 24 C20 23.34 20 22.68 20 22 C19.2884375 21.91105469 18.576875 21.82210937 17.84375 21.73046875 C10.40958857 19.82086959 3.21316148 13.31974222 -1 7 C-1.9375 4.25 -1.9375 4.25 -2 2 C-1.34 1.34 -0.68 0.68 0 0 Z " fill="#158CBD" transform="translate(52,135)"/>
<path d="M0 0 C0.33 0 0.66 0 1 0 C1.00410889 0.66829834 1.00821777 1.33659668 1.01245117 2.02514648 C1.25417055 24.56692873 4.12948591 43.25823392 19 61 C18.01 63.31 17.02 65.62 16 68 C12.91249185 67.69540278 12.03348401 67.03765371 9.9296875 64.671875 C8.91261719 63.22554687 8.91261719 63.22554687 7.875 61.75 C7.19179688 60.79609375 6.50859375 59.8421875 5.8046875 58.859375 C4.17410363 56.27585251 3.01631772 53.87083561 2 51 C5.76607955 52.25535985 6.26441793 53.52883585 8 57 C8 57.99 8 58.98 8 60 C8.66 60 9.32 60 10 60 C10 60.66 10 61.32 10 62 C11.485 61.505 11.485 61.505 13 61 C12.29931502 55.56228983 9.5481124 52.04867011 6.49609375 47.62109375 C5 45 5 45 5 41 C4.34 41 3.68 41 3 41 C2.51622009 39.14703165 2.03821364 37.29255559 1.5625 35.4375 C1.29566406 34.40496094 1.02882812 33.37242188 0.75390625 32.30859375 C-0.73861017 25.75853463 -1.15805972 19.49607402 -1.125 12.8125 C-1.12886719 12.01908203 -1.13273437 11.22566406 -1.13671875 10.40820312 C-1.13542969 9.64056641 -1.13414063 8.87292969 -1.1328125 8.08203125 C-1.13168457 7.39343018 -1.13055664 6.7048291 -1.12939453 5.99536133 C-0.9931888 3.89496612 -0.56989107 2.02234931 0 0 Z " fill="#39A0C4" transform="translate(34,73)"/>
<path d="M0 0 C3.16664906 -0.59845308 5.85336002 -0.77684485 9 0 C11.75918169 2.74551109 13.33788141 5.9758911 15.0625 9.4375 C15.54654297 10.33533203 16.03058594 11.23316406 16.52929688 12.15820312 C20 18.66270332 20 18.66270332 20 20 C16.8659163 20.51588259 14.11695353 20.68668764 11 20 C8.43944793 17.6220225 7.04588416 14.79181609 5.5 11.6875 C5.07203125 10.90181641 4.6440625 10.11613281 4.203125 9.30664062 C2.54884814 6.23104677 1.10614227 3.31842682 0 0 Z " fill="#6C6C6C" transform="translate(142,97)"/>
<path d="M0 0 C-1.32 0.33 -2.64 0.66 -4 1 C-4.0825 1.94875 -4.165 2.8975 -4.25 3.875 C-5 7 -5 7 -7.0625 8.375 C-7.701875 8.58125 -8.34125 8.7875 -9 9 C-9 9.99 -9 10.98 -9 12 C-11.3359375 13.7890625 -11.3359375 13.7890625 -14.375 15.625 C-15.37273437 16.23601563 -16.37046875 16.84703125 -17.3984375 17.4765625 C-18.90800957 18.36054614 -20.43533137 19.21766568 -22 20 C-22 18.02 -22 16.04 -22 14 C-19.69 14 -17.38 14 -15 14 C-15 13.01 -15 12.02 -15 11 C-14.34 10.67 -13.68 10.34 -13 10 C-13 9.34 -13 8.68 -13 8 C-16.41766643 8.62916132 -18.6673465 9.95367246 -21.5 11.9375 C-24.2627187 13.86288786 -26.95053593 15.56536576 -30 17 C-27.01774942 12.83513281 -23.67552068 10.12153771 -19.375 7.4375 C-18.75979492 7.04836426 -18.14458984 6.65922852 -17.51074219 6.25830078 C-4.08223474 -2.04111737 -4.08223474 -2.04111737 0 0 Z " fill="#238AB5" transform="translate(84,8)"/>
<path d="M0 0 C0.8971875 0.309375 0.8971875 0.309375 1.8125 0.625 C1.4825 1.285 1.1525 1.945 0.8125 2.625 C1.4725 2.955 2.1325 3.285 2.8125 3.625 C1.4925 3.625 0.1725 3.625 -1.1875 3.625 C-1.1875 4.615 -1.1875 5.605 -1.1875 6.625 C-3.4975 6.625 -5.8075 6.625 -8.1875 6.625 C-8.06375 7.49125 -7.94 8.3575 -7.8125 9.25 C-8.27613955 13.42275591 -9.59034339 14.67325486 -12.484375 17.5234375 C-14.1875 18.625 -14.1875 18.625 -18.1875 18.625 C-19 16.4375 -19 16.4375 -19.1875 13.625 C-17.56633815 11.57152833 -16.19945501 10.24272058 -14.1875 8.625 C-13.45015625 8.03074219 -12.7128125 7.43648437 -11.953125 6.82421875 C-2.71627606 -0.46564732 -2.71627606 -0.46564732 0 0 Z " fill="#148FC1" transform="translate(70.1875,15.375)"/>
<path d="M0 0 C3.09011944 2.58265114 4.21627918 5.48956659 5.6875 9.1875 C6.34298828 10.81751953 6.34298828 10.81751953 7.01171875 12.48046875 C7.33785156 13.31191406 7.66398437 14.14335938 8 15 C7.01 15 6.02 15 5 15 C4.67 14.01 4.34 13.02 4 12 C4 13.32 4 14.64 4 16 C4.99 16 5.98 16 7 16 C7 16.99 7 17.98 7 19 C6.34 19 5.68 19 5 19 C5 20.98 5 22.96 5 25 C1.17424335 20.19529974 -2.68388246 14.08012173 -3.16796875 7.83203125 C-2.76332217 4.61543383 -1.80621063 2.70931595 0 0 Z " fill="#1E91BC" transform="translate(94,74)"/>
<path d="M0 0 C4.95 0 9.9 0 15 0 C15.33 1.98 15.66 3.96 16 6 C9.73 6 3.46 6 -3 6 C-2.01 4.35 -1.02 2.7 0 1 C0 0.67 0 0.34 0 0 Z " fill="#747475" transform="translate(75,98)"/>
<path d="M0 0 C0.33 0 0.66 0 1 0 C1.05422947 1.4370809 1.09289723 2.87475462 1.125 4.3125 C1.14820313 5.11300781 1.17140625 5.91351563 1.1953125 6.73828125 C1 9 1 9 -1 12 C-1.39013716 13.9896995 -1.73202649 15.99019869 -2 18 C-2.66 18 -3.32 18 -4 18 C-4 29.22 -4 40.44 -4 52 C-4.33 52 -4.66 52 -5 52 C-8.1300248 35.06556222 -7.64412008 15.65224589 0 0 Z " fill="#339EC1" transform="translate(33,52)"/>
<path d="M0 0 C4.49407656 2.24703828 6.83790609 4.43557953 9 9 C9.74414374 14.47960391 10.17465365 19.98801953 7 24.75 C6.01 25.86375 6.01 25.86375 5 27 C5 24 5 24 5.9375 21.75 C7.18659491 18.51704848 7.59626047 15.43178604 8 12 C7.01 11.67 6.02 11.34 5 11 C4.34 13.64 3.68 16.28 3 19 C2.67 19 2.34 19 2 19 C1.34 15.37 0.68 11.74 0 8 C0.66 7.67 1.32 7.34 2 7 C1.34 4.69 0.68 2.38 0 0 Z " fill="#1D5C87" transform="translate(153,57)"/>
<path d="M0 0 C1.37918793 0.12744971 2.75733135 0.28117302 4.125 0.5 C4.455 1.16 4.785 1.82 5.125 2.5 C2.57059585 7.52072539 2.57059585 7.52072539 0.125 9.5 C-3.67198149 9.83063603 -7.15739009 9.27477334 -10.875 8.5 C-5.99371376 -0.07574994 -5.99371376 -0.07574994 0 0 Z " fill="#7A7A7A" transform="translate(171.875,133.5)"/>
<path d="M0 0 C3.05984274 4.5897641 5.24961227 9.59166959 7.625 14.5625 C8.140625 15.62919922 8.65625 16.69589844 9.1875 17.79492188 C9.67476562 18.81263672 10.16203125 19.83035156 10.6640625 20.87890625 C11.33622803 22.27991577 11.33622803 22.27991577 12.02197266 23.70922852 C13 26 13 26 13 28 C10.36 28 7.72 28 5 28 C5 27.34 5 26.68 5 26 C5.99 25.67 6.98 25.34 8 25 C8 23.68 8 22.36 8 21 C7.34 21 6.68 21 6 21 C5.67 19.02 5.34 17.04 5 15 C4.34 15 3.68 15 3 15 C1.42922093 9.97350697 0.55145271 5.23880078 0 0 Z " fill="#28779D" transform="translate(102,89)"/>
<path d="M0 0 C8.25 0 16.5 0 25 0 C25 0.33 25 0.66 25 1 C22.69 1 20.38 1 18 1 C18 2.65 18 4.3 18 6 C17.01 6 16.02 6 15 6 C15 4.35 15 2.7 15 1 C10.38 1 5.76 1 1 1 C1 2.98 1 4.96 1 7 C8.26 7 15.52 7 23 7 C23 7.33 23 7.66 23 8 C15.41 8 7.82 8 0 8 C0 5.36 0 2.72 0 0 Z " fill="#5187A6" transform="translate(124,55)"/>
<path d="M0 0 C0.33 0.66 0.66 1.32 1 2 C0.34 2 -0.32 2 -1 2 C0.36983503 5.16115776 0.9890638 5.9927092 4 8 C2.73308493 8.67408308 1.46129251 9.33900497 0.1875 10 C-0.52019531 10.37125 -1.22789062 10.7425 -1.95703125 11.125 C-4 12 -4 12 -7 12 C-7 9.36 -7 6.72 -7 4 C-4.69 2.68 -2.38 1.36 0 0 Z " fill="#5B5B5B" transform="translate(147,151)"/>
<path d="M0 0 C0.99 0 1.98 0 3 0 C2 3 2 3 0 4 C0 5.65 0 7.3 0 9 C0.99 9.33 1.98 9.66 3 10 C1.35830472 12.02054804 -0.30911778 14.02043058 -2 16 C-2.33 16 -2.66 16 -3 16 C-3 14.35 -3 12.7 -3 11 C-4.65 10.67 -6.3 10.34 -8 10 C-6.7260411 7.96166576 -5.38938077 5.96147874 -4 4 C-3.34 4 -2.68 4 -2 4 C-1.34 2.68 -0.68 1.36 0 0 Z " fill="#369DC1" transform="translate(52,25)"/>
<path d="M0 0 C0.33 0 0.66 0 1 0 C1.02505615 0.73524902 1.0501123 1.47049805 1.07592773 2.22802734 C1.1931045 5.61047692 1.31527123 8.99272936 1.4375 12.375 C1.47681641 13.53128906 1.51613281 14.68757813 1.55664062 15.87890625 C1.80422827 22.62090815 2.21946125 29.29790162 3 36 C-1.20961956 31.79038044 -1.13375826 26.32617248 -1.23046875 20.6640625 C-1.2265097 18.31766796 -1.21191355 15.97127087 -1.1875 13.625 C-1.18685547 12.42488281 -1.18621094 11.22476563 -1.18554688 9.98828125 C-1.14045603 1.14045603 -1.14045603 1.14045603 0 0 Z " fill="#C4EEF6" transform="translate(26,72)"/>
<path d="M0 0 C0.99 0 1.98 0 3 0 C3 1.32 3 2.64 3 4 C3.99 4 4.98 4 6 4 C6.33 2.68 6.66 1.36 7 0 C8.625 1.625 8.625 1.625 10 4 C9.1875 7.25 9.1875 7.25 8 10 C4.48878203 9.7073985 3.19517334 9.1900372 0.625 6.6875 C-1 4 -1 4 -0.75 1.6875 C-0.5025 1.130625 -0.255 0.57375 0 0 Z " fill="#4F4F51" transform="translate(166,31)"/>
<path d="M0 0 C1.98 0 3.96 0 6 0 C6 1.65 6 3.3 6 5 C11.28 5 16.56 5 22 5 C22 5.33 22 5.66 22 6 C16.06 6 10.12 6 4 6 C4 6.66 4 7.32 4 8 C2.68 7.67 1.36 7.34 0 7 C0 4.69 0 2.38 0 0 Z " fill="#1B719E" transform="translate(126,84)"/>
<path d="M0 0 C3.08089673 2.77280706 4.68775452 5.06326356 6 9 C3.03 9 0.06 9 -3 9 C-2.25 2.25 -2.25 2.25 0 0 Z " fill="#565656" transform="translate(156,108)"/>
<path d="M0 0 C0.99 0.495 0.99 0.495 2 1 C2 2.32 2 3.64 2 5 C2.99 5 3.98 5 5 5 C5.99 8.3 6.98 11.6 8 15 C6.68 15.99 5.36 16.98 4 18 C2.14223235 14.86501708 1.79859524 12.62528568 2 9 C2.66 9 3.32 9 4 9 C4 8.01 4 7.02 4 6 C3.01 6 2.02 6 1 6 C0.67 4.02 0.34 2.04 0 0 Z " fill="#1281B2" transform="translate(97,84)"/>
<path d="M0 0 C3.96 0 7.92 0 12 0 C11.34 1.32 10.68 2.64 10 4 C6.7 4 3.4 4 0 4 C0 2.68 0 1.36 0 0 Z " fill="#0D669B" transform="translate(132,84)"/>
<path d="M0 0 C3.3 0 6.6 0 10 0 C10.33 1.32 10.66 2.64 11 4 C7.37 4 3.74 4 0 4 C0 2.68 0 1.36 0 0 Z " fill="#0A6A9F" transform="translate(126,57)"/>
<path d="M0 0 C3.2542015 2.83430453 4.5206753 4.68607774 5 9 C3.68 9.33 2.36 9.66 1 10 C1 9.34 1 8.68 1 8 C0.34 8 -0.32 8 -1 8 C-1.93065133 5.39417629 -2.14917407 4.35801776 -1.0625 1.75 C-0.711875 1.1725 -0.36125 0.595 0 0 Z " fill="#0D98CB" transform="translate(43,125)"/>
<path d="M0 0 C3.19338187 2.12892124 3.54260833 2.74096097 4.875 6.125 C6.56461078 10.17875609 8.60375185 13.72848544 11.046875 17.37109375 C12 19 12 19 12 21 C11.34 21 10.68 21 10 21 C8.51925046 18.94241228 7.18523151 16.91211348 5.875 14.75 C5.50246094 14.16347656 5.12992188 13.57695313 4.74609375 12.97265625 C2.68518944 9.61330674 2 8.04528996 2 4 C1.34 4 0.68 4 0 4 C0 2.68 0 1.36 0 0 Z " fill="#3298B9" transform="translate(37,110)"/>
<path d="M0 0 C2.97246802 2.54782974 4.41535288 5.45340883 6 9 C6 9.66 6 10.32 6 11 C3.36 11 0.72 11 -2 11 C-2 10.34 -2 9.68 -2 9 C-1.01 8.67 -0.02 8.34 1 8 C0.67 5.36 0.34 2.72 0 0 Z " fill="#236588" transform="translate(109,106)"/>
<path d="M0 0 C-0.5 1.9375 -0.5 1.9375 -2 4 C-4.69658452 4.68790422 -7.2017019 4.81946464 -10 5 C-9.67 3.35 -9.34 1.7 -9 0 C-5.62182575 -0.84454356 -3.32534757 -1.10844919 0 0 Z " fill="#1181BA" transform="translate(89,9)"/>
<path d="M0 0 C0.66 0.33 1.32 0.66 2 1 C2 2.98 2 4.96 2 7 C2.66 7 3.32 7 4 7 C4.33 8.65 4.66 10.3 5 12 C3.68 12 2.36 12 1 12 C-1.09440189 8.59659693 -1.25797575 5.95562822 -1 2 C-0.67 1.34 -0.34 0.68 0 0 Z " fill="#0B70A4" transform="translate(106,103)"/>
<path d="M0 0 C1.67542976 0.28604898 3.34385343 0.61781233 5 1 C5.5497272 6.63470383 3.95047835 9.38987758 1 14 C-0.15957207 10.52128379 0.22543349 9.65780355 1.4375 6.3125 C1.72496094 5.50425781 2.01242188 4.69601563 2.30859375 3.86328125 C2.65083984 2.94095703 2.65083984 2.94095703 3 2 C1.02 2.99 -0.96 3.98 -3 5 C-1.125 1.125 -1.125 1.125 0 0 Z " fill="#2393BC" transform="translate(44,35)"/>
<path d="M0 0 C3.85691628 1.85054064 7.54423295 3.99343074 11.25 6.125 C11.8996875 6.49753906 12.549375 6.87007812 13.21875 7.25390625 C14.81306224 8.16829121 16.4066079 9.08401256 18 10 C15 11 15 11 13.09765625 10.328125 C12.09025391 9.79445312 12.09025391 9.79445312 11.0625 9.25 C10.00675781 8.69119141 10.00675781 8.69119141 8.9296875 8.12109375 C6.82155712 6.89632974 4.92298601 5.49565578 3 4 C2.01 3.67 1.02 3.34 0 3 C0 2.01 0 1.02 0 0 Z " fill="#2D8AAD" transform="translate(61,144)"/>
<path d="M0 0 C1.98 0 3.96 0 6 0 C4.26440562 3.057952 2.61527381 5.63379989 0 8 C-1.125 2.25 -1.125 2.25 0 0 Z " fill="#959595" transform="translate(171,135)"/>
<path d="M0 0 C3.09011944 2.58265114 4.21627918 5.48956659 5.6875 9.1875 C6.12449219 10.27417969 6.56148438 11.36085938 7.01171875 12.48046875 C7.33785156 13.31191406 7.66398437 14.14335938 8 15 C7.01 15 6.02 15 5 15 C4.73445313 14.21753906 4.46890625 13.43507813 4.1953125 12.62890625 C3.84210938 11.61699219 3.48890625 10.60507813 3.125 9.5625 C2.77695313 8.55316406 2.42890625 7.54382813 2.0703125 6.50390625 C1.25944907 3.86028249 1.25944907 3.86028249 -1 3 C-0.67 2.01 -0.34 1.02 0 0 Z " fill="#3F97B7" transform="translate(94,74)"/>
<path d="M0 0 C-1.32 0.33 -2.64 0.66 -4 1 C-4.33 2.32 -4.66 3.64 -5 5 C-7.97 5 -10.94 5 -14 5 C-10.63156097 2.05261585 -4.40469071 -2.20234535 0 0 Z " fill="#358AB1" transform="translate(84,8)"/>
<path d="M0 0 C0.825 0.144375 1.65 0.28875 2.5 0.4375 C6.32686278 1.05253152 10.15216707 1.53560637 14 2 C14 2.66 14 3.32 14 4 C14.66 4.33 15.32 4.66 16 5 C10.04492601 4.6083965 5.37180176 3.62875405 0 1 C0 0.67 0 0.34 0 0 Z " fill="#2C80A6" transform="translate(81,163)"/>
<path d="M0 0 C-3.1632845 1.6720218 -6.3821918 2.92221136 -9.75 4.125 C-10.73484375 4.47820313 -11.7196875 4.83140625 -12.734375 5.1953125 C-13.85585937 5.59363281 -13.85585937 5.59363281 -15 6 C-15 5.34 -15 4.68 -15 4 C-10.26225515 -0.23012933 -6.18971076 -0.1190329 0 0 Z " fill="#2B84A8" transform="translate(90,13)"/>
<path d="M0 0 C1.8125 0.125 1.8125 0.125 4 1 C7.86565407 6.24624481 7.2985481 11.78577669 7 18 C6.67 18 6.34 18 6 18 C5.97421875 17.34773438 5.9484375 16.69546875 5.921875 16.0234375 C5.53594076 10.07654177 4.72551158 6.65688947 1 2 C0.67 1.34 0.34 0.68 0 0 Z " fill="#CEE5ED" transform="translate(156,58)"/>
<path d="M0 0 C0.66 0.33 1.32 0.66 2 1 C-0.64 4.3 -3.28 7.6 -6 11 C-6.99 10.34 -7.98 9.68 -9 9 C-6.03 6.03 -3.06 3.06 0 0 Z " fill="#D6F5FA" transform="translate(61,28)"/>
<path d="M0 0 C0.66 0 1.32 0 2 0 C2 1.32 2 2.64 2 4 C-4.27 4 -10.54 4 -17 4 C-17 3.67 -17 3.34 -17 3 C-15.85660156 2.95101562 -14.71320313 2.90203125 -13.53515625 2.8515625 C-12.04424527 2.77654811 -10.55336108 2.70099972 -9.0625 2.625 C-8.30775391 2.5940625 -7.55300781 2.563125 -6.77539062 2.53125 C-4.84492605 2.4273685 -2.92057919 2.22104386 -1 2 C-0.67 1.34 -0.34 0.68 0 0 Z " fill="#6E6E6F" transform="translate(89,100)"/>
<path d="M0 0 C0.66 0.33 1.32 0.66 2 1 C2 2.98 2 4.96 2 7 C0.35 7 -1.3 7 -3 7 C-2.38722388 4.03824877 -1.74627478 2.61941217 0 0 Z " fill="#969696" transform="translate(167,134)"/>
<path d="M0 0 C0.33 0 0.66 0 1 0 C1.08131463 1.43655854 1.13933559 2.8744483 1.1875 4.3125 C1.23970703 5.51326172 1.23970703 5.51326172 1.29296875 6.73828125 C0.93801608 9.47851584 0.10633718 10.29171079 -2 12 C-2.17835515 7.45194365 -1.99785435 4.1205746 0 0 Z " fill="#2D9DC4" transform="translate(33,52)"/>
<path d="M0 0 C0.64453125 1.765625 0.64453125 1.765625 1 4 C0.07421875 5.921875 0.07421875 5.921875 -1.3125 7.75 C-1.98732422 8.67039062 -1.98732422 8.67039062 -2.67578125 9.609375 C-3.11277344 10.06828125 -3.54976562 10.5271875 -4 11 C-4.66 11 -5.32 11 -6 11 C-4.54955729 6.89041233 -2.48889248 3.56741255 0 0 Z " fill="#D5F5F9" transform="translate(51,38)"/>
<path d="M0 0 C0 0.99 0 1.98 0 3 C-5.94 3.495 -5.94 3.495 -12 4 C-12.33 3.34 -12.66 2.68 -13 2 C-4.57142857 -0.28571429 -4.57142857 -0.28571429 0 0 Z " fill="#327F9F" transform="translate(102,3)"/>
<path d="M0 0 C3.76607955 1.25535985 4.26441793 2.52883585 6 6 C6 6.99 6 7.98 6 9 C6.66 9 7.32 9 8 9 C7.67 9.99 7.34 10.98 7 12 C6.0165504 10.56542672 5.03839079 9.12722594 4.0625 7.6875 C3.51722656 6.88699219 2.97195312 6.08648437 2.41015625 5.26171875 C1 3 1 3 0 0 Z " fill="#2E95B9" transform="translate(36,124)"/>
<path d="M0 0 C0.33 0 0.66 0 1 0 C1.47617251 6.69286912 1.39973696 10.77531236 -3 16 C-3 13 -3 13 -2.0625 10.8125 C-0.69350332 7.18868526 -0.39165697 3.85129358 0 0 Z " fill="#195176" transform="translate(161,68)"/>
<path d="M0 0 C2.64 0 5.28 0 8 0 C6.68 1.65 5.36 3.3 4 5 C1.48916886 3.74458443 1.12874554 2.49936512 0 0 Z " fill="#494949" transform="translate(163,142)"/>
<path d="M0 0 C1.14926266 0.95421808 2.29430541 1.91352045 3.4375 2.875 C4.07558594 3.40867188 4.71367188 3.94234375 5.37109375 4.4921875 C7 6 7 6 8 8 C7.01 8 6.02 8 5 8 C5 7.34 5 6.68 5 6 C3.68 5.67 2.36 5.34 1 5 C0.67 3.35 0.34 1.7 0 0 Z " fill="#CEEEF6" transform="translate(48,142)"/>
<path d="M0 0 C1.32 0.99 2.64 1.98 4 3 C3.34 4.65 2.68 6.3 2 8 C0.23537317 4.91190305 0 3.76687864 0 0 Z " fill="#1495C8" transform="translate(51,136)"/>
<path d="M0 0 C2.45823172 3.68734758 3.01242616 6.69699971 4 11 C2 10 2 10 0 8 C-0.36933645 5.24627091 -0.18336678 2.79634339 0 0 Z " fill="#C7F0F6" transform="translate(29,108)"/>
<path d="M0 0 C0.66 0 1.32 0 2 0 C2.98726527 2.66561622 3.0275526 3.90126985 2.25 6.6875 C1 9 1 9 -2 10 C-1.34 6.7 -0.68 3.4 0 0 Z " fill="#565759" transform="translate(183,101)"/>
<path d="M0 0 C0.66 0.33 1.32 0.66 2 1 C1.38722388 3.96175123 0.74627478 5.38058783 -1 8 C-1.66 8 -2.32 8 -3 8 C-1.125 2.25 -1.125 2.25 0 0 Z " fill="#7A797D" transform="translate(94,38)"/>
<path d="M0 0 C0.99 0 1.98 0 3 0 C2.67 1.98 2.34 3.96 2 6 C1.01 6 0.02 6 -1 6 C-0.67 4.02 -0.34 2.04 0 0 Z " fill="#0C9ACC" transform="translate(44,37)"/>
<path d="M0 0 C1.98 0.495 1.98 0.495 4 1 C4 1.99 4 2.98 4 4 C2.35 4 0.7 4 -1 4 C-0.67 2.68 -0.34 1.36 0 0 Z " fill="#1180B7" transform="translate(88,161)"/>
<path d="M0 0 C0.33 0 0.66 0 1 0 C1.3125 2.1875 1.3125 2.1875 1 5 C-1.5 7.8125 -1.5 7.8125 -4 10 C-2.8905928 6.51329166 -1.73662334 3.22515763 0 0 Z " fill="#898A8B" transform="translate(81,65)"/>
<path d="M0 0 C0.66 0 1.32 0 2 0 C2.66 2.97 3.32 5.94 4 9 C0.06153846 5.67692308 0.06153846 5.67692308 -0.25 2.25 C-0.1675 1.5075 -0.085 0.765 0 0 Z " fill="#43A4C3" transform="translate(35,102)"/>
</svg>
